<svg width="42" height="41" viewBox="0 0 42 41" fill="none" xmlns="http://www.w3.org/2000/svg">
<g id="account_circle_24px">
<path id="icon/action/account_circle_24px" fill-rule="evenodd" clip-rule="evenodd" d="M21 3.41666C11.34 3.41666 3.5 11.07 3.5 20.5C3.5 29.93 11.34 37.5833 21 37.5833C30.66 37.5833 38.5 29.93 38.5 20.5C38.5 11.07 30.66 3.41666 21 3.41666ZM21 8.54166C23.905 8.54166 26.25 10.8308 26.25 13.6667C26.25 16.5025 23.905 18.7917 21 18.7917C18.095 18.7917 15.75 16.5025 15.75 13.6667C15.75 10.8308 18.095 8.54166 21 8.54166ZM10.5 27.2992C12.7575 30.6133 16.625 32.8 21 32.8C25.375 32.8 29.2425 30.6133 31.5 27.2992C31.4475 23.8996 24.4825 22.0375 21 22.0375C17.5 22.0375 10.5525 23.8996 10.5 27.2992Z" fill="#F5B971"/>
</g>
</svg>
