<svg width="41" height="41" viewBox="0 0 41 41" fill="none" xmlns="http://www.w3.org/2000/svg">
<g id="favorite_border_24px">
<path id="icon/action/favorite_border_24px" fill-rule="evenodd" clip-rule="evenodd" d="M20.5005 8.99814C23.5071 5.47897 29.0763 4.04397 33.5863 7.11897C35.978 8.75897 37.4813 11.5265 37.5838 14.4306C37.8059 21.059 31.9463 26.3719 22.9776 34.5036L22.7896 34.6744C21.4913 35.8702 19.4925 35.8702 18.1942 34.6915L18.0234 34.5377L17.9202 34.444C9.00959 26.3481 3.17888 21.0506 3.41713 14.4477C3.51963 11.5265 5.02297 8.75897 7.41463 7.11897C11.9246 4.02689 17.4938 5.47897 20.5005 8.99814ZM20.5005 32.1631L20.6713 31.9923C28.803 24.6294 34.1671 19.7606 34.1671 14.8235C34.1671 11.4069 31.6046 8.84438 28.188 8.84438C25.5571 8.84438 22.9946 10.5356 22.1063 12.876H18.9117C18.0063 10.5356 15.4438 8.84438 12.813 8.84438C9.3963 8.84438 6.8338 11.4069 6.8338 14.8235C6.8338 19.7606 12.198 24.6294 20.3296 31.9923L20.5005 32.1631Z" fill="#F5B971"/>
</g>
</svg>
