<svg width="143" height="45" viewBox="0 0 143 45" fill="none" xmlns="http://www.w3.org/2000/svg">
<g id="favorite_24px">
<path id="icon/action/favorite_24px" d="M13.3497 31.3072C12.5897 31.9972 11.4197 31.9972 10.6597 31.2972L10.5497 31.1972C5.29973 26.4472 1.86973 23.3372 1.99973 19.4572C2.05973 17.7572 2.92973 16.1272 4.33973 15.1672C6.97973 13.3672 10.2397 14.2072 11.9997 16.2672C13.7597 14.2072 17.0197 13.3572 19.6597 15.1672C21.0697 16.1272 21.9397 17.7572 21.9997 19.4572C22.1397 23.3372 18.6997 26.4472 13.4497 31.2172L13.3497 31.3072Z" fill="#F5B971"/>
<g id="Group">
<path id="Vector" d="M142.938 23.5465C142.582 20.739 140.747 18.5705 137.845 18.1508C137.707 17.0234 137.509 15.9143 137.201 14.8608C137.292 14.8556 137.382 14.8543 137.473 14.8489C138.301 14.8004 138.686 14.2235 138.651 13.6665C139.13 13.6254 139.58 13.3315 139.591 12.761C139.607 11.9532 139.623 11.1451 139.638 10.3373C139.647 9.89725 139.297 9.48969 138.832 9.3763C136.92 8.91028 129.98 8.28758 121.876 7.99313C123.865 6.60077 123.075 4.10912 121.688 2.52488C120.139 0.75662 117.276 0.161515 114.932 0.0207901C109.711 -0.292594 104.482 2.96438 106.645 7.93197C96.8267 8.28 88.7485 9.54679 89.3033 12.6027C89.2085 12.9448 89.4199 13.3496 89.9517 13.3991C90.7002 13.4684 91.4499 13.528 92.1996 13.5864C91.9406 14.7055 91.7671 15.8296 91.6428 16.956C88.5294 17.1717 86.2734 19.5063 86.018 22.3344C85.7443 25.3648 88.6421 27.2993 91.7036 27.0974C91.7546 27.7128 91.8094 28.3284 91.8658 28.943C92.2366 32.9778 92.1519 37.5035 94.9001 40.9125C99.3152 46.3886 109.973 44.383 116.256 44.5722C123.021 44.7765 133.294 46.8646 136.569 39.5161C137.905 36.5176 138.13 33.1986 138.148 29.9314C138.399 30.1446 138.747 30.2751 139.163 30.222C142.451 29.805 143.249 25.993 142.938 23.5465ZM88.15 22.32C88.4263 20.5537 89.7385 19.1375 91.5116 18.4866C91.3587 20.8375 91.4249 23.199 91.5891 25.5608C89.5573 25.3264 87.7991 24.5627 88.15 22.32ZM114.519 2.24858C116.222 2.25507 118.1 2.68482 119.422 3.69642C120.856 4.79326 120.213 6.21432 120.723 7.61182C120.772 7.74578 120.874 7.86892 121.003 7.9631C116.908 7.82778 112.556 7.77934 108.429 7.87866C108.43 7.81939 108.44 7.76202 108.425 7.70005C107.493 3.87909 110.716 2.23396 114.519 2.24858ZM91.006 12.0463C92.5338 10.4943 97.1153 10.274 98.7384 10.1027C103.655 9.5836 108.657 9.60065 113.599 9.65288C118.697 9.707 123.794 9.94786 128.876 10.3108C130.751 10.4447 132.623 10.6112 134.491 10.8076C135.258 10.8883 136.023 10.9852 136.786 11.0926C138.315 11.308 137.518 11.19 137.492 12.6162C137.485 12.6157 137.48 12.6122 137.473 12.6116C137.057 12.5854 136.64 12.5672 136.224 12.5445C135.743 12.079 134.988 12.0918 134.531 12.4552C127.901 12.16 121.215 12.2257 114.587 12.0125C106.751 11.7608 98.8338 11.4414 91.006 12.0463ZM134.841 35.9081C133.397 44.4845 123.159 42.4093 116.256 42.1165C110.616 41.8768 100.678 44.0152 96.8321 39.0866C94.4661 36.0543 95.017 31.1681 94.6512 27.6413C94.1713 23.0134 93.7649 18.3648 94.0037 13.7166C100.268 14.1415 106.566 14.2597 112.837 14.4787C119.968 14.7276 127.257 15.1896 134.423 14.9809C135.632 21.7566 135.976 29.1674 134.841 35.9081ZM138.558 28.2289C138.394 28.2597 138.26 28.3133 138.147 28.3796C138.141 27.7109 138.135 27.0454 138.132 26.3894C138.122 24.2677 138.166 21.8979 137.987 19.5588C139.624 20.4091 140.557 22.1755 140.772 23.9097C140.97 25.5223 140.612 27.8446 138.558 28.2289Z" fill="#F5B971"/>
</g>
</g>
</svg>
