<svg
  width="23"
  height="23"
  viewBox="0 0 23 23"
  fill="none"
  xmlns="http://www.w3.org/2000/svg"
>
  <circle cx="11.5" cy="11.5" r="11.5" fill="#2F4454" />
  <path
    fill-rule="evenodd"
    clip-rule="evenodd"
    d="M12.0002 6.60879C13.4669 4.80629 16.1836 4.07129 18.3836 5.64629C19.5502 6.48629 20.2836 7.90379 20.3336 9.39129C20.4419 12.7863 17.5836 15.5075 13.2086 19.6725L13.1169 19.76C12.4836 20.3725 11.5086 20.3725 10.8752 19.7688L10.7919 19.69L10.7416 19.642C6.39492 15.4954 3.55068 12.782 3.6669 9.40004C3.7169 7.90379 4.45023 6.48629 5.6169 5.64629C7.8169 4.06254 10.5336 4.80629 12.0002 6.60879ZM12.0002 18.4738L12.0836 18.3863C16.0502 14.615 18.6669 12.1213 18.6669 9.59254C18.6669 7.84254 17.4169 6.53004 15.7502 6.53004C14.4669 6.53004 13.2169 7.39629 12.7836 8.59504H11.2252C10.7836 7.39629 9.53356 6.53004 8.25023 6.53004C6.58356 6.53004 5.33356 7.84254 5.33356 9.59254C5.33356 12.1213 7.95023 14.615 11.9169 18.3863L12.0002 18.4738Z"
    fill="#F5B971"
  />
</svg>
